<svg width="138" height="47" viewBox="0 0 138 47" fill="none" xmlns="http://www.w3.org/2000/svg">
<path d="M20.8281 24.6797H27.8359C27.6953 26.9766 27.0625 29.0156 25.9375 30.7969C24.8281 32.5781 23.2734 33.9688 21.2734 34.9688C19.2891 35.9688 16.8984 36.4688 14.1016 36.4688C11.9141 36.4688 9.95312 36.0938 8.21875 35.3438C6.48438 34.5781 5 33.4844 3.76562 32.0625C2.54688 30.6406 1.61719 28.9219 0.976562 26.9062C0.335938 24.8906 0.015625 22.6328 0.015625 20.1328V17.7656C0.015625 15.2656 0.34375 13.0078 1 10.9922C1.67188 8.96094 2.625 7.23438 3.85938 5.8125C5.10938 4.39062 6.60156 3.29688 8.33594 2.53125C10.0703 1.76562 12.0078 1.38281 14.1484 1.38281C16.9922 1.38281 19.3906 1.89844 21.3438 2.92969C23.3125 3.96094 24.8359 5.38281 25.9141 7.19531C27.0078 9.00781 27.6641 11.0703 27.8828 13.3828H20.8516C20.7734 12.0078 20.5 10.8438 20.0312 9.89062C19.5625 8.92188 18.8516 8.19531 17.8984 7.71094C16.9609 7.21094 15.7109 6.96094 14.1484 6.96094C12.9766 6.96094 11.9531 7.17969 11.0781 7.61719C10.2031 8.05469 9.46875 8.71875 8.875 9.60938C8.28125 10.5 7.83594 11.625 7.53906 12.9844C7.25781 14.3281 7.11719 15.9062 7.11719 17.7188V20.1328C7.11719 21.8984 7.25 23.4531 7.51562 24.7969C7.78125 26.125 8.1875 27.25 8.73438 28.1719C9.29688 29.0781 10.0156 29.7656 10.8906 30.2344C11.7812 30.6875 12.8516 30.9141 14.1016 30.9141C15.5703 30.9141 16.7812 30.6797 17.7344 30.2109C18.6875 29.7422 19.4141 29.0469 19.9141 28.125C20.4297 27.2031 20.7344 26.0547 20.8281 24.6797ZM30.9531 23.5781V23.0859C30.9531 21.2266 31.2188 19.5156 31.75 17.9531C32.2812 16.375 33.0547 15.0078 34.0703 13.8516C35.0859 12.6953 36.3359 11.7969 37.8203 11.1562C39.3047 10.5 41.0078 10.1719 42.9297 10.1719C44.8516 10.1719 46.5625 10.5 48.0625 11.1562C49.5625 11.7969 50.8203 12.6953 51.8359 13.8516C52.8672 15.0078 53.6484 16.375 54.1797 17.9531C54.7109 19.5156 54.9766 21.2266 54.9766 23.0859V23.5781C54.9766 25.4219 54.7109 27.1328 54.1797 28.7109C53.6484 30.2734 52.8672 31.6406 51.8359 32.8125C50.8203 33.9688 49.5703 34.8672 48.0859 35.5078C46.6016 36.1484 44.8984 36.4688 42.9766 36.4688C41.0547 36.4688 39.3438 36.1484 37.8438 35.5078C36.3594 34.8672 35.1016 33.9688 34.0703 32.8125C33.0547 31.6406 32.2812 30.2734 31.75 28.7109C31.2188 27.1328 30.9531 25.4219 30.9531 23.5781ZM37.7031 23.0859V23.5781C37.7031 24.6406 37.7969 25.6328 37.9844 26.5547C38.1719 27.4766 38.4688 28.2891 38.875 28.9922C39.2969 29.6797 39.8438 30.2188 40.5156 30.6094C41.1875 31 42.0078 31.1953 42.9766 31.1953C43.9141 31.1953 44.7188 31 45.3906 30.6094C46.0625 30.2188 46.6016 29.6797 47.0078 28.9922C47.4141 28.2891 47.7109 27.4766 47.8984 26.5547C48.1016 25.6328 48.2031 24.6406 48.2031 23.5781V23.0859C48.2031 22.0547 48.1016 21.0859 47.8984 20.1797C47.7109 19.2578 47.4062 18.4453 46.9844 17.7422C46.5781 17.0234 46.0391 16.4609 45.3672 16.0547C44.6953 15.6484 43.8828 15.4453 42.9297 15.4453C41.9766 15.4453 41.1641 15.6484 40.4922 16.0547C39.8359 16.4609 39.2969 17.0234 38.875 17.7422C38.4688 18.4453 38.1719 19.2578 37.9844 20.1797C37.7969 21.0859 37.7031 22.0547 37.7031 23.0859ZM65.875 16.1719V36H59.125V10.6406H65.4766L65.875 16.1719ZM73.5156 10.4766L73.3984 16.7344C73.0703 16.6875 72.6719 16.6484 72.2031 16.6172C71.75 16.5703 71.3359 16.5469 70.9609 16.5469C70.0078 16.5469 69.1797 16.6719 68.4766 16.9219C67.7891 17.1562 67.2109 17.5078 66.7422 17.9766C66.2891 18.4453 65.9453 19.0156 65.7109 19.6875C65.4922 20.3594 65.3672 21.125 65.3359 21.9844L63.9766 21.5625C63.9766 19.9219 64.1406 18.4141 64.4688 17.0391C64.7969 15.6484 65.2734 14.4375 65.8984 13.4062C66.5391 12.375 67.3203 11.5781 68.2422 11.0156C69.1641 10.4531 70.2188 10.1719 71.4062 10.1719C71.7812 10.1719 72.1641 10.2031 72.5547 10.2656C72.9453 10.3125 73.2656 10.3828 73.5156 10.4766ZM91.7031 29.9297V10.6406H98.4531V36H92.1016L91.7031 29.9297ZM92.4531 24.7266L94.4453 24.6797C94.4453 26.3672 94.25 27.9375 93.8594 29.3906C93.4688 30.8281 92.8828 32.0781 92.1016 33.1406C91.3203 34.1875 90.3359 35.0078 89.1484 35.6016C87.9609 36.1797 86.5625 36.4688 84.9531 36.4688C83.7188 36.4688 82.5781 36.2969 81.5312 35.9531C80.5 35.5938 79.6094 35.0391 78.8594 34.2891C78.125 33.5234 77.5469 32.5469 77.125 31.3594C76.7188 30.1562 76.5156 28.7109 76.5156 27.0234V10.6406H83.2656V27.0703C83.2656 27.8203 83.3516 28.4531 83.5234 28.9688C83.7109 29.4844 83.9688 29.9062 84.2969 30.2344C84.625 30.5625 85.0078 30.7969 85.4453 30.9375C85.8984 31.0781 86.3984 31.1484 86.9453 31.1484C88.3359 31.1484 89.4297 30.8672 90.2266 30.3047C91.0391 29.7422 91.6094 28.9766 91.9375 28.0078C92.2812 27.0234 92.4531 25.9297 92.4531 24.7266ZM103.984 10.6406H110.758V37.5234C110.758 39.3984 110.414 40.9844 109.727 42.2812C109.039 43.5781 108.047 44.5625 106.75 45.2344C105.453 45.9062 103.883 46.2422 102.039 46.2422C101.461 46.2422 100.898 46.2109 100.352 46.1484C99.7891 46.0859 99.2109 45.9844 98.6172 45.8438L98.6406 40.6641C99.0156 40.7266 99.3828 40.7734 99.7422 40.8047C100.086 40.8516 100.438 40.875 100.797 40.875C101.5 40.875 102.086 40.7578 102.555 40.5234C103.023 40.2891 103.375 39.9219 103.609 39.4219C103.859 38.9375 103.984 38.3047 103.984 37.5234V10.6406ZM103.445 4.03125C103.445 3.04688 103.789 2.23437 104.477 1.59375C105.18 0.953125 106.102 0.632812 107.242 0.632812C108.398 0.632812 109.32 0.953125 110.008 1.59375C110.695 2.23437 111.039 3.04688 111.039 4.03125C111.039 5.01562 110.695 5.82813 110.008 6.46875C109.32 7.10937 108.398 7.42969 107.242 7.42969C106.102 7.42969 105.18 7.10937 104.477 6.46875C103.789 5.82813 103.445 5.01562 103.445 4.03125ZM129.812 30.2812V18.9844C129.812 18.1719 129.68 17.4766 129.414 16.8984C129.148 16.3047 128.734 15.8438 128.172 15.5156C127.625 15.1875 126.914 15.0234 126.039 15.0234C125.289 15.0234 124.641 15.1562 124.094 15.4219C123.547 15.6719 123.125 16.0391 122.828 16.5234C122.531 16.9922 122.383 17.5469 122.383 18.1875H115.633C115.633 17.1094 115.883 16.0859 116.383 15.1172C116.883 14.1484 117.609 13.2969 118.562 12.5625C119.516 11.8125 120.648 11.2266 121.961 10.8047C123.289 10.3828 124.773 10.1719 126.414 10.1719C128.383 10.1719 130.133 10.5 131.664 11.1562C133.195 11.8125 134.398 12.7969 135.273 14.1094C136.164 15.4219 136.609 17.0625 136.609 19.0312V29.8828C136.609 31.2734 136.695 32.4141 136.867 33.3047C137.039 34.1797 137.289 34.9453 137.617 35.6016V36H130.797C130.469 35.3125 130.219 34.4531 130.047 33.4219C129.891 32.375 129.812 31.3281 129.812 30.2812ZM130.703 20.5547L130.75 24.375H126.977C126.086 24.375 125.312 24.4766 124.656 24.6797C124 24.8828 123.461 25.1719 123.039 25.5469C122.617 25.9062 122.305 26.3281 122.102 26.8125C121.914 27.2969 121.82 27.8281 121.82 28.4062C121.82 28.9844 121.953 29.5078 122.219 29.9766C122.484 30.4297 122.867 30.7891 123.367 31.0547C123.867 31.3047 124.453 31.4297 125.125 31.4297C126.141 31.4297 127.023 31.2266 127.773 30.8203C128.523 30.4141 129.102 29.9141 129.508 29.3203C129.93 28.7266 130.148 28.1641 130.164 27.6328L131.945 30.4922C131.695 31.1328 131.352 31.7969 130.914 32.4844C130.492 33.1719 129.953 33.8203 129.297 34.4297C128.641 35.0234 127.852 35.5156 126.93 35.9062C126.008 36.2812 124.914 36.4688 123.648 36.4688C122.039 36.4688 120.578 36.1484 119.266 35.5078C117.969 34.8516 116.938 33.9531 116.172 32.8125C115.422 31.6562 115.047 30.3438 115.047 28.875C115.047 27.5469 115.297 26.3672 115.797 25.3359C116.297 24.3047 117.031 23.4375 118 22.7344C118.984 22.0156 120.211 21.4766 121.68 21.1172C123.148 20.7422 124.852 20.5547 126.789 20.5547H130.703Z" fill="black"/>
</svg>
